<svg xmlns="http://www.w3.org/2000/svg" version="1.1" xmlns:xlink="http://www.w3.org/1999/xlink" xmlns:svgjs="http://svgjs.com/svgjs" width="256" height="256" x="0" y="0" viewBox="0 0 24 24" style="enable-background:new 0 0 512 512" xml:space="preserve"><g><path d="M20,0H3V3H1V5H3V7H1V9H3v2H1v2H3v2H1v2H3v2H1v2H3v3H20a3,3,0,0,0,3-3V3A3,3,0,0,0,20,0ZM13,4A3.5,3.5,0,1,1,9.5,7.5,3.5,3.5,0,0,1,13,4Zm6,14H17V16a1,1,0,0,0-1-1H10a1,1,0,0,0-1,1v2H7V16a3,3,0,0,1,3-3h6a3,3,0,0,1,3,3ZM11.5,7.5A1.5,1.5,0,1,1,13,9,1.5,1.5,0,0,1,11.5,7.5Z" fill="#ffffff" data-original="#000000"></path></g></svg>