<svg xmlns="http://www.w3.org/2000/svg" height="20" width="20"><path d="m12.833 12.146 1.063-1.063-1.75-1.75q.166-.312.26-.645.094-.334.094-.688 0-1.125-.802-1.927T9.75 5.271q-1.167 0-1.958.781Q7 6.833 7 8q0 1.146.792 1.948.791.802 1.937.802.333 0 .667-.083.333-.084.687-.271ZM9.771 9.25q-.5 0-.886-.375Q8.5 8.5 8.5 7.979t.385-.885q.386-.365.886-.365.521 0 .885.375.365.375.365.875t-.365.886q-.364.385-.885.385ZM1.75 17q-.312 0-.531-.219Q1 16.562 1 16.25q0-.312.219-.531.219-.219.531-.219h16.5q.312 0 .531.219.219.219.219.531 0 .312-.219.531-.219.219-.531.219Zm1.75-2.5q-.625 0-1.062-.438Q2 13.625 2 13V4.5q0-.625.438-1.062Q2.875 3 3.5 3h13q.625 0 1.062.438Q18 3.875 18 4.5V13q0 .625-.438 1.062-.437.438-1.062.438Zm0-1.5h13V4.5h-13V13Zm0 0V4.5 13Z"/></svg>